<?xml version="1.0" encoding="utf-8"?>
<!-- Generator: Adobe Illustrator 27.5.0, SVG Export Plug-In . SVG Version: 6.00 Build 0)  -->
<svg version="1.1" id="Capa_1" xmlns="http://www.w3.org/2000/svg" xmlns:xlink="http://www.w3.org/1999/xlink" x="0px" y="0px"
	 viewBox="0 0 50.3 63.6" style="enable-background:new 0 0 285.3 102.1;" xml:space="preserve">
<style type="text/css">
	.st0{fill:#72D0C2;}
</style>
<g>
	<path class="st0" d="M1.1,38.5c-0.3-1.4-1.9-8.4,2.1-12.3c2-2,6.8-3.3,22.4-7c6.2-1.5,12.5-3,15-3.9c1.4-0.5,1.8-2.4,1.6-4
		C42,10.2,41.3,8.2,38.8,8c-7.5-0.5-26.2,4.6-29.6,6.6c-0.6,1-0.5,1.5-0.2,5l-8,0.9C0.5,15.7,0.4,13.6,2.6,10
		c0.7-1.1,2-3.4,16.3-6.9c3.2-0.8,14-3.3,20.3-3c5.6,0.3,9.9,4.4,10.8,10.1c0.9,5.6-1.9,10.8-6.6,12.7c-3,1.1-9,2.6-16,4.2
		c-6.5,1.5-16.3,3.8-18.6,5c-0.3,0.7-0.3,2.9,0.1,4.6L1.1,38.5z M8.9,14.8L8.9,14.8L8.9,14.8z"/>
</g>
<g>
	<path class="st0" d="M12.3,63.2c-0.5,0-0.9,0-1.3,0C5.4,62.8,1,58.8,0.2,53.1C-0.7,47.5,2,42.3,6.8,40.4c3-1.1,9-2.6,16-4.2
		c6.5-1.5,16.3-3.8,18.6-5c0.3-0.7,0.3-2.9-0.1-4.6l7.8-1.9c0.3,1.4,1.9,8.4-2.1,12.3c-2,2-6.8,3.3-22.4,7c-6.2,1.5-12.5,3-15,3.9
		c-1.4,0.5-1.8,2.4-1.6,4c0.2,1.2,0.9,3.2,3.4,3.3c7.5,0.4,26.2-4.6,29.6-6.6c0.6-1,0.5-1.5,0.2-5l8-0.9c0.5,4.8,0.7,6.8-1.5,10.5
		c-0.7,1.1-2,3.4-16.3,6.9C28.4,60.9,18.7,63.2,12.3,63.2z M41.4,48.4L41.4,48.4L41.4,48.4z"/>
</g>
</svg>
